<svg xmlns="http://www.w3.org/2000/svg" xmlns:xlink="http://www.w3.org/1999/xlink" width="95" zoomAndPan="magnify" viewBox="0 0 71.25 58.499999" height="78" preserveAspectRatio="xMidYMid meet" version="1.0"><defs><g/><clipPath id="id1"><path d="M 14 26 L 29 26 L 29 38.203125 L 14 38.203125 Z M 14 26 " clip-rule="nonzero"/></clipPath><clipPath id="id2"><path d="M 24 18.164062 L 30 18.164062 L 30 38.203125 L 24 38.203125 Z M 24 18.164062 " clip-rule="nonzero"/></clipPath><clipPath id="id3"><path d="M 25 19 L 32 19 L 32 38.203125 L 25 38.203125 Z M 25 19 " clip-rule="nonzero"/></clipPath></defs><g clip-path="url(#id1)"><path fill="#c6b543" d="M 20.5625 34.78125 C 19.984375 34.78125 16.949219 34.910156 16.128906 33.183594 C 15.304688 31.453125 17.304688 30.808594 17.933594 30.746094 C 18.5625 30.679688 18.933594 30.859375 19 31.359375 C 19.0625 31.859375 19.691406 31.890625 19.691406 31.890625 C 20.015625 33.050781 20.917969 34.410156 20.917969 34.410156 C 20.675781 34.457031 20.5625 34.78125 20.5625 34.78125 Z M 25.824219 30.320312 C 23.996094 30.132812 20 29.445312 19.160156 26.972656 L 19.128906 29.582031 C 19.128906 29.582031 16.191406 28.90625 15.03125 30.777344 C 13.867188 32.648438 15.0625 35.488281 20.675781 36.007812 C 20.675781 36.007812 21.015625 36.507812 22.210938 36.457031 C 22.210938 36.457031 22.417969 38.199219 26.742188 38.167969 L 28.402344 35.054688 L 26.742188 32.449219 C 26.335938 31.71875 25.910156 31.027344 25.824219 30.320312 " fill-opacity="1" fill-rule="nonzero"/></g><path fill="#c6b543" d="M 27.308594 26.4375 L 27.308594 24.320312 C 27.1875 24.078125 26.46875 23.96875 26.277344 23.757812 C 20.46875 23.773438 19.34375 26.429688 19.34375 26.429688 C 19.730469 28.0625 20.914062 28.648438 20.914062 28.648438 C 21.820312 26.203125 27.308594 26.4375 27.308594 26.4375 " fill-opacity="1" fill-rule="nonzero"/><g clip-path="url(#id2)"><path fill="#bd510b" d="M 26.742188 38.167969 C 26.742188 38.167969 27.859375 36.136719 27.472656 34.199219 C 27.085938 32.261719 24.96875 30.710938 26.179688 28.949219 C 27.386719 27.183594 27.6875 24.300781 25.34375 23.03125 C 23 21.761719 24.269531 18.855469 25.515625 18.167969 C 25.515625 18.167969 23.839844 21.675781 26.289062 22.535156 C 28.742188 23.394531 30.441406 26.109375 28.59375 28.734375 C 26.742188 31.359375 28.226562 32.90625 28.894531 33.703125 C 29.558594 34.5 28.785156 37.015625 26.742188 38.167969 " fill-opacity="1" fill-rule="nonzero"/></g><g clip-path="url(#id3)"><path fill="#d67230" d="M 26.742188 38.167969 C 26.742188 38.167969 30.804688 36.875 29.375 33.390625 C 27.945312 29.910156 28.839844 30.292969 29.679688 27.808594 C 30.515625 25.320312 29.582031 23.351562 27.679688 22.449219 C 25.773438 21.546875 25.289062 20.511719 25.871094 19.707031 C 25.871094 19.707031 26.226562 21.480469 28.613281 21.609375 C 31 21.738281 32.421875 25.992188 30.90625 28.078125 C 29.386719 30.164062 29.386719 31.511719 30.066406 32.953125 C 30.742188 34.390625 31.839844 37.234375 26.742188 38.167969 " fill-opacity="1" fill-rule="nonzero"/></g><g fill="#bd510b" fill-opacity="1"><g transform="translate(32.095165, 29.430547)"><g><path d="M 2.984375 -4.28125 C 2.640625 -4.28125 2.367188 -4.132812 2.171875 -3.84375 C 1.984375 -3.5625 1.890625 -3.171875 1.890625 -2.671875 C 1.890625 -1.640625 2.28125 -1.125 3.0625 -1.125 C 3.300781 -1.125 3.53125 -1.15625 3.75 -1.21875 C 3.976562 -1.28125 4.207031 -1.359375 4.4375 -1.453125 L 4.4375 -0.21875 C 3.988281 -0.0195312 3.476562 0.078125 2.90625 0.078125 C 2.09375 0.078125 1.46875 -0.15625 1.03125 -0.625 C 0.601562 -1.101562 0.390625 -1.789062 0.390625 -2.6875 C 0.390625 -3.238281 0.492188 -3.726562 0.703125 -4.15625 C 0.910156 -4.582031 1.210938 -4.90625 1.609375 -5.125 C 2.003906 -5.351562 2.46875 -5.46875 3 -5.46875 C 3.582031 -5.46875 4.140625 -5.34375 4.671875 -5.09375 L 4.234375 -3.953125 C 4.023438 -4.046875 3.820312 -4.125 3.625 -4.1875 C 3.425781 -4.25 3.210938 -4.28125 2.984375 -4.28125 Z M 2.984375 -4.28125 "/></g></g></g><g fill="#bd510b" fill-opacity="1"><g transform="translate(36.998797, 29.430547)"><g><path d="M 4.5 -2.09375 C 4.5 -1.414062 4.3125 -0.882812 3.9375 -0.5 C 3.570312 -0.113281 3.054688 0.078125 2.390625 0.078125 C 1.753906 0.078125 1.25 -0.113281 0.875 -0.5 C 0.5 -0.894531 0.3125 -1.425781 0.3125 -2.09375 C 0.3125 -2.78125 0.492188 -3.3125 0.859375 -3.6875 C 1.234375 -4.0625 1.753906 -4.25 2.421875 -4.25 C 2.828125 -4.25 3.1875 -4.160156 3.5 -3.984375 C 3.820312 -3.816406 4.066406 -3.566406 4.234375 -3.234375 C 4.410156 -2.910156 4.5 -2.53125 4.5 -2.09375 Z M 1.78125 -2.09375 C 1.78125 -1.738281 1.828125 -1.46875 1.921875 -1.28125 C 2.023438 -1.09375 2.1875 -1 2.40625 -1 C 2.632812 -1 2.796875 -1.09375 2.890625 -1.28125 C 2.984375 -1.46875 3.03125 -1.738281 3.03125 -2.09375 C 3.03125 -2.457031 2.984375 -2.726562 2.890625 -2.90625 C 2.796875 -3.09375 2.632812 -3.1875 2.40625 -3.1875 C 2.1875 -3.1875 2.023438 -3.09375 1.921875 -2.90625 C 1.828125 -2.726562 1.78125 -2.457031 1.78125 -2.09375 Z M 1.78125 -2.09375 "/></g></g></g><g fill="#bd510b" fill-opacity="1"><g transform="translate(41.813875, 29.430547)"><g><path d="M 3.046875 -3.109375 L 2.15625 -3.109375 L 2.15625 0 L 0.71875 0 L 0.71875 -3.109375 L 0.171875 -3.109375 L 0.171875 -3.8125 L 0.75 -4.171875 L 0.75 -4.234375 C 0.75 -4.785156 0.859375 -5.179688 1.078125 -5.421875 C 1.304688 -5.660156 1.671875 -5.78125 2.171875 -5.78125 C 2.359375 -5.78125 2.535156 -5.765625 2.703125 -5.734375 C 2.878906 -5.710938 3.082031 -5.664062 3.3125 -5.59375 L 3 -4.65625 C 2.820312 -4.707031 2.648438 -4.734375 2.484375 -4.734375 C 2.367188 -4.734375 2.285156 -4.695312 2.234375 -4.625 C 2.179688 -4.5625 2.15625 -4.453125 2.15625 -4.296875 L 2.15625 -4.1875 L 3.046875 -4.1875 Z M 3.046875 -3.109375 "/></g></g></g><g fill="#bd510b" fill-opacity="1"><g transform="translate(44.935374, 29.430547)"><g><path d="M 3.046875 -3.109375 L 2.15625 -3.109375 L 2.15625 0 L 0.71875 0 L 0.71875 -3.109375 L 0.171875 -3.109375 L 0.171875 -3.8125 L 0.75 -4.171875 L 0.75 -4.234375 C 0.75 -4.785156 0.859375 -5.179688 1.078125 -5.421875 C 1.304688 -5.660156 1.671875 -5.78125 2.171875 -5.78125 C 2.359375 -5.78125 2.535156 -5.765625 2.703125 -5.734375 C 2.878906 -5.710938 3.082031 -5.664062 3.3125 -5.59375 L 3 -4.65625 C 2.820312 -4.707031 2.648438 -4.734375 2.484375 -4.734375 C 2.367188 -4.734375 2.285156 -4.695312 2.234375 -4.625 C 2.179688 -4.5625 2.15625 -4.453125 2.15625 -4.296875 L 2.15625 -4.1875 L 3.046875 -4.1875 Z M 3.046875 -3.109375 "/></g></g></g><g fill="#bd510b" fill-opacity="1"><g transform="translate(48.056872, 29.430547)"><g><path d="M 2.515625 0.078125 C 1.816406 0.078125 1.273438 -0.101562 0.890625 -0.46875 C 0.503906 -0.84375 0.3125 -1.375 0.3125 -2.0625 C 0.3125 -2.769531 0.488281 -3.3125 0.84375 -3.6875 C 1.207031 -4.0625 1.71875 -4.25 2.375 -4.25 C 3.007812 -4.25 3.5 -4.082031 3.84375 -3.75 C 4.1875 -3.425781 4.359375 -2.957031 4.359375 -2.34375 L 4.359375 -1.703125 L 1.78125 -1.703125 C 1.789062 -1.460938 1.875 -1.273438 2.03125 -1.140625 C 2.195312 -1.015625 2.414062 -0.953125 2.6875 -0.953125 C 2.945312 -0.953125 3.179688 -0.972656 3.390625 -1.015625 C 3.609375 -1.066406 3.835938 -1.148438 4.078125 -1.265625 L 4.078125 -0.234375 C 3.859375 -0.117188 3.625 -0.0390625 3.375 0 C 3.132812 0.0507812 2.847656 0.078125 2.515625 0.078125 Z M 2.4375 -3.28125 C 2.257812 -3.28125 2.113281 -3.222656 2 -3.109375 C 1.882812 -3.003906 1.820312 -2.835938 1.8125 -2.609375 L 3.046875 -2.609375 C 3.035156 -2.804688 2.972656 -2.96875 2.859375 -3.09375 C 2.753906 -3.21875 2.613281 -3.28125 2.4375 -3.28125 Z M 2.4375 -3.28125 "/></g></g></g><g fill="#bd510b" fill-opacity="1"><g transform="translate(52.728051, 29.430547)"><g><path d="M 2.515625 0.078125 C 1.816406 0.078125 1.273438 -0.101562 0.890625 -0.46875 C 0.503906 -0.84375 0.3125 -1.375 0.3125 -2.0625 C 0.3125 -2.769531 0.488281 -3.3125 0.84375 -3.6875 C 1.207031 -4.0625 1.71875 -4.25 2.375 -4.25 C 3.007812 -4.25 3.5 -4.082031 3.84375 -3.75 C 4.1875 -3.425781 4.359375 -2.957031 4.359375 -2.34375 L 4.359375 -1.703125 L 1.78125 -1.703125 C 1.789062 -1.460938 1.875 -1.273438 2.03125 -1.140625 C 2.195312 -1.015625 2.414062 -0.953125 2.6875 -0.953125 C 2.945312 -0.953125 3.179688 -0.972656 3.390625 -1.015625 C 3.609375 -1.066406 3.835938 -1.148438 4.078125 -1.265625 L 4.078125 -0.234375 C 3.859375 -0.117188 3.625 -0.0390625 3.375 0 C 3.132812 0.0507812 2.847656 0.078125 2.515625 0.078125 Z M 2.4375 -3.28125 C 2.257812 -3.28125 2.113281 -3.222656 2 -3.109375 C 1.882812 -3.003906 1.820312 -2.835938 1.8125 -2.609375 L 3.046875 -2.609375 C 3.035156 -2.804688 2.972656 -2.96875 2.859375 -3.09375 C 2.753906 -3.21875 2.613281 -3.28125 2.4375 -3.28125 Z M 2.4375 -3.28125 "/></g></g></g><g fill="#bd510b" fill-opacity="1"><g transform="translate(57.398796, 29.430547)"><g/></g></g><g fill="#bd510b" fill-opacity="1"><g transform="translate(35.660866, 36.377421)"><g><path d="M 4.109375 -1.640625 C 4.109375 -1.304688 4.023438 -1.007812 3.859375 -0.75 C 3.691406 -0.488281 3.445312 -0.285156 3.125 -0.140625 C 2.800781 0.00390625 2.425781 0.078125 2 0.078125 C 1.632812 0.078125 1.332031 0.0507812 1.09375 0 C 0.851562 -0.0507812 0.597656 -0.140625 0.328125 -0.265625 L 0.328125 -1.5625 C 0.609375 -1.414062 0.898438 -1.300781 1.203125 -1.21875 C 1.503906 -1.144531 1.78125 -1.109375 2.03125 -1.109375 C 2.25 -1.109375 2.40625 -1.144531 2.5 -1.21875 C 2.601562 -1.300781 2.65625 -1.398438 2.65625 -1.515625 C 2.65625 -1.585938 2.632812 -1.648438 2.59375 -1.703125 C 2.550781 -1.765625 2.484375 -1.820312 2.390625 -1.875 C 2.304688 -1.925781 2.070312 -2.039062 1.6875 -2.21875 C 1.332031 -2.382812 1.066406 -2.539062 0.890625 -2.6875 C 0.710938 -2.832031 0.582031 -3.003906 0.5 -3.203125 C 0.414062 -3.398438 0.375 -3.628906 0.375 -3.890625 C 0.375 -4.390625 0.550781 -4.773438 0.90625 -5.046875 C 1.269531 -5.328125 1.769531 -5.46875 2.40625 -5.46875 C 2.957031 -5.46875 3.523438 -5.34375 4.109375 -5.09375 L 3.671875 -3.96875 C 3.160156 -4.195312 2.722656 -4.3125 2.359375 -4.3125 C 2.171875 -4.3125 2.03125 -4.273438 1.9375 -4.203125 C 1.851562 -4.140625 1.8125 -4.0625 1.8125 -3.96875 C 1.8125 -3.851562 1.863281 -3.753906 1.96875 -3.671875 C 2.082031 -3.585938 2.382812 -3.4375 2.875 -3.21875 C 3.34375 -3.007812 3.664062 -2.785156 3.84375 -2.546875 C 4.019531 -2.304688 4.109375 -2.003906 4.109375 -1.640625 Z M 4.109375 -1.640625 "/></g></g></g><g fill="#bd510b" fill-opacity="1"><g transform="translate(40.022108, 36.377421)"><g><path d="M 3.125 0 L 3.125 -2.28125 C 3.125 -2.84375 2.960938 -3.125 2.640625 -3.125 C 2.398438 -3.125 2.222656 -3.023438 2.109375 -2.828125 C 1.992188 -2.628906 1.9375 -2.300781 1.9375 -1.84375 L 1.9375 0 L 0.5 0 L 0.5 -5.75 L 1.9375 -5.75 L 1.9375 -4.921875 C 1.9375 -4.554688 1.921875 -4.140625 1.890625 -3.671875 L 1.953125 -3.671875 C 2.085938 -3.878906 2.25 -4.023438 2.4375 -4.109375 C 2.625 -4.203125 2.847656 -4.25 3.109375 -4.25 C 3.566406 -4.25 3.925781 -4.113281 4.1875 -3.84375 C 4.445312 -3.582031 4.578125 -3.207031 4.578125 -2.71875 L 4.578125 0 Z M 3.125 0 "/></g></g></g><g fill="#bd510b" fill-opacity="1"><g transform="translate(45.084397, 36.377421)"><g><path d="M 4.5 -2.09375 C 4.5 -1.414062 4.3125 -0.882812 3.9375 -0.5 C 3.570312 -0.113281 3.054688 0.078125 2.390625 0.078125 C 1.753906 0.078125 1.25 -0.113281 0.875 -0.5 C 0.5 -0.894531 0.3125 -1.425781 0.3125 -2.09375 C 0.3125 -2.78125 0.492188 -3.3125 0.859375 -3.6875 C 1.234375 -4.0625 1.753906 -4.25 2.421875 -4.25 C 2.828125 -4.25 3.1875 -4.160156 3.5 -3.984375 C 3.820312 -3.816406 4.066406 -3.566406 4.234375 -3.234375 C 4.410156 -2.910156 4.5 -2.53125 4.5 -2.09375 Z M 1.78125 -2.09375 C 1.78125 -1.738281 1.828125 -1.46875 1.921875 -1.28125 C 2.023438 -1.09375 2.1875 -1 2.40625 -1 C 2.632812 -1 2.796875 -1.09375 2.890625 -1.28125 C 2.984375 -1.46875 3.03125 -1.738281 3.03125 -2.09375 C 3.03125 -2.457031 2.984375 -2.726562 2.890625 -2.90625 C 2.796875 -3.09375 2.632812 -3.1875 2.40625 -3.1875 C 2.1875 -3.1875 2.023438 -3.09375 1.921875 -2.90625 C 1.828125 -2.726562 1.78125 -2.457031 1.78125 -2.09375 Z M 1.78125 -2.09375 "/></g></g></g><g fill="#bd510b" fill-opacity="1"><g transform="translate(49.899475, 36.377421)"><g><path d="M 3.015625 0.078125 C 2.796875 0.078125 2.601562 0.0390625 2.4375 -0.03125 C 2.269531 -0.101562 2.101562 -0.226562 1.9375 -0.40625 L 1.875 -0.40625 C 1.914062 -0.113281 1.9375 0.0664062 1.9375 0.140625 L 1.9375 1.8125 L 0.5 1.8125 L 0.5 -4.1875 L 1.671875 -4.1875 L 1.875 -3.65625 L 1.9375 -3.65625 C 2.207031 -4.050781 2.578125 -4.25 3.046875 -4.25 C 3.515625 -4.25 3.878906 -4.054688 4.140625 -3.671875 C 4.398438 -3.296875 4.53125 -2.769531 4.53125 -2.09375 C 4.53125 -1.425781 4.394531 -0.894531 4.125 -0.5 C 3.851562 -0.113281 3.484375 0.078125 3.015625 0.078125 Z M 2.53125 -3.125 C 2.3125 -3.125 2.160156 -3.046875 2.078125 -2.890625 C 1.992188 -2.742188 1.945312 -2.519531 1.9375 -2.21875 L 1.9375 -2.109375 C 1.9375 -1.742188 1.984375 -1.484375 2.078125 -1.328125 C 2.179688 -1.171875 2.335938 -1.09375 2.546875 -1.09375 C 2.722656 -1.09375 2.851562 -1.171875 2.9375 -1.328125 C 3.019531 -1.484375 3.0625 -1.742188 3.0625 -2.109375 C 3.0625 -2.472656 3.019531 -2.734375 2.9375 -2.890625 C 2.851562 -3.046875 2.71875 -3.125 2.53125 -3.125 Z M 2.53125 -3.125 "/></g></g></g></svg>