<svg xmlns="http://www.w3.org/2000/svg" xmlns:xlink="http://www.w3.org/1999/xlink" width="500" zoomAndPan="magnify" viewBox="0 0 375 374.999991" height="500" preserveAspectRatio="xMidYMid meet" version="1.0"><defs><g/></defs><g fill="#ffffff" fill-opacity="1"><g transform="translate(17.379918, 190.401433)"><g><path d="M 0 3.136719 C 0 3.910156 0.652344 4.679688 2.25 4.679688 C 7.222656 4.679688 14.566406 -2.960938 20.429688 -10.246094 C 23.507812 -14.035156 26.351562 -17.941406 29.253906 -21.910156 L 31.917969 -25.523438 C 36.300781 -31.503906 39.144531 -35.117188 41.394531 -37.542969 C 41.570312 -37.722656 41.75 -37.839844 41.925781 -37.839844 C 42.222656 -37.839844 42.460938 -37.601562 42.398438 -37.1875 C 41.984375 -34.109375 39.914062 -14.804688 38.3125 -13.441406 C 36.121094 -11.605469 32.746094 -8.054688 32.746094 -4.972656 C 32.746094 -3.316406 33.753906 -2.367188 35.292969 -2.367188 C 39.5 -2.367188 41.453125 -9.296875 41.808594 -12.140625 C 41.925781 -13.144531 42.164062 -13.917969 42.875 -14.566406 C 51.695312 -22.621094 67.09375 -34.347656 74.554688 -38.550781 C 74.910156 -38.726562 75.207031 -38.789062 75.382812 -38.789062 C 75.679688 -38.789062 75.800781 -38.609375 75.800781 -38.375 C 75.800781 -38.195312 75.738281 -37.898438 75.5625 -37.664062 L 68.8125 -29.492188 C 60.402344 -19.542969 50.632812 -7.996094 50.632812 -0.117188 C 50.632812 1.125 50.867188 2.429688 52.113281 2.429688 C 53.53125 2.429688 53.652344 0.652344 53.652344 0 C 53.652344 -6.75 63.183594 -18.238281 71.417969 -28.070312 C 75.800781 -33.339844 79.824219 -38.136719 81.484375 -40.980469 C 81.898438 -41.6875 81.957031 -41.925781 81.957031 -42.105469 C 81.957031 -42.992188 81.011719 -43.644531 79.824219 -43.644531 C 79.351562 -43.644531 78.878906 -43.585938 78.050781 -43.167969 C 73.3125 -40.800781 55.011719 -28.660156 42.753906 -16.9375 C 42.636719 -16.816406 42.460938 -16.757812 42.339844 -16.757812 C 42.164062 -16.757812 41.984375 -16.878906 41.984375 -17.171875 C 41.984375 -17.230469 41.984375 -17.292969 42.105469 -17.648438 C 43.585938 -22.148438 44.589844 -38.550781 45.597656 -41.511719 L 45.65625 -41.6875 C 45.65625 -42.636719 45.066406 -43.230469 44.53125 -43.230469 C 41.984375 -43.230469 31.445312 -29.550781 29.667969 -27.179688 L 27.0625 -23.628906 C 20.726562 -14.980469 9 1.539062 2.191406 1.539062 C 0.710938 1.539062 0 2.367188 0 3.136719 Z M 38.492188 -11.015625 C 38.550781 -11.015625 38.609375 -10.957031 38.609375 -10.71875 C 38.609375 -9.59375 36.773438 -4.972656 35.589844 -4.972656 C 35.292969 -4.972656 35.175781 -5.210938 35.175781 -5.507812 C 35.175781 -6.574219 37.425781 -11.015625 38.492188 -11.015625 Z M 38.492188 -11.015625 "/></g></g></g><g fill="#ffffff" fill-opacity="1"><g transform="translate(80.263101, 190.401433)"><g><path d="M -1.363281 -6.929688 C -1.363281 -4.738281 0.175781 -3.136719 2.488281 -3.136719 C 3.433594 -3.136719 4.558594 -3.257812 5.742188 -4.027344 L 7.046875 -4.855469 C 7.933594 -5.390625 8.703125 -5.863281 9.238281 -5.863281 C 9.535156 -5.863281 9.769531 -5.742188 9.890625 -5.449219 C 10.363281 -3.96875 11.785156 -3.078125 13.441406 -3.078125 C 17.054688 -3.078125 21.671875 -7.105469 24.457031 -9.535156 C 24.753906 -9.832031 24.929688 -10.183594 24.929688 -10.480469 C 24.929688 -10.957031 24.574219 -11.371094 24.042969 -11.371094 C 23.6875 -11.371094 23.332031 -11.191406 22.917969 -10.835938 C 21.378906 -9.535156 17.585938 -5.863281 14.863281 -5.863281 C 13.855469 -5.863281 13.621094 -6.394531 13.621094 -6.988281 C 13.621094 -9.535156 17.585938 -13.679688 19.128906 -14.863281 C 19.777344 -15.398438 19.957031 -15.8125 19.957031 -16.105469 C 19.957031 -16.816406 19.246094 -17.46875 18.476562 -17.46875 C 18.296875 -17.46875 18.121094 -17.410156 17.941406 -17.351562 C 16.816406 -17.351562 16.285156 -17.648438 15.574219 -17.941406 L 15.277344 -18.0625 C 14.273438 -18.476562 13.265625 -18.832031 12.199219 -18.832031 C 7.105469 -18.832031 -1.363281 -11.960938 -1.363281 -6.929688 Z M 1.953125 -8.171875 C 1.953125 -11.785156 8.882812 -16.816406 12.140625 -16.816406 C 13.265625 -16.816406 14.035156 -16.226562 14.035156 -15.160156 C 14.035156 -12.257812 7.105469 -6.277344 3.910156 -6.277344 C 2.722656 -6.277344 1.953125 -6.929688 1.953125 -8.171875 Z M 1.953125 -8.171875 "/></g></g></g><g fill="#ffffff" fill-opacity="1"><g transform="translate(103.23737, 190.401433)"><g><path d="M -4.085938 -4.679688 C -4.085938 -3.96875 -3.492188 -3.316406 -2.722656 -3.316406 C -2.25 -3.316406 -1.777344 -3.613281 -1.480469 -4.027344 L 3.199219 -10.777344 C 4.796875 -13.085938 8.644531 -16.34375 11.605469 -16.34375 C 12.4375 -16.34375 13.027344 -16.105469 13.027344 -15.398438 C 13.027344 -14.980469 12.910156 -14.449219 12.375 -13.738281 L 9.832031 -10.183594 C 8.765625 -8.585938 8.289062 -7.164062 8.289062 -6.097656 C 8.289062 -4.382812 9.414062 -3.433594 11.132812 -3.433594 C 14.625 -3.433594 18.476562 -7.34375 20.785156 -9.710938 C 20.964844 -9.949219 21.023438 -10.125 21.023438 -10.363281 C 21.023438 -10.894531 20.546875 -11.371094 20.015625 -11.371094 C 19.777344 -11.371094 19.601562 -11.25 19.363281 -11.074219 L 19.007812 -10.777344 C 17.648438 -9.652344 13.441406 -5.507812 11.664062 -5.507812 C 11.25 -5.507812 11.015625 -5.742188 11.015625 -6.21875 C 11.015625 -6.808594 11.371094 -7.875 12.316406 -9.121094 L 13.5 -10.71875 C 14.035156 -11.488281 14.625 -12.140625 15.042969 -12.792969 C 15.691406 -13.796875 15.929688 -14.746094 15.929688 -15.515625 C 15.929688 -17.648438 14.210938 -18.710938 12.082031 -18.710938 C 11.191406 -18.710938 10.246094 -18.535156 9.296875 -18.121094 C 8.941406 -17.941406 8.703125 -17.882812 8.46875 -17.882812 C 8.230469 -17.882812 7.996094 -18.003906 7.875 -18.359375 C 7.699219 -18.832031 7.222656 -19.007812 6.75 -19.007812 C 6.335938 -19.007812 5.742188 -18.773438 5.328125 -18.179688 L 2.902344 -14.804688 C 0.652344 -11.664062 -1.835938 -8.585938 -3.847656 -5.390625 C -4.027344 -5.152344 -4.085938 -4.914062 -4.085938 -4.679688 Z M -4.085938 -4.679688 "/></g></g></g><g fill="#ffffff" fill-opacity="1"><g transform="translate(122.36286, 190.401433)"><g><path d="M 2.605469 -3.199219 C 4.324219 -3.199219 5.804688 -3.910156 7.164062 -4.796875 C 8.113281 -5.390625 9.058594 -6.039062 9.710938 -6.039062 C 9.832031 -6.039062 10.007812 -5.980469 10.125 -5.863281 C 10.246094 -4.085938 11.785156 -2.546875 13.738281 -2.546875 C 15.988281 -2.546875 19.1875 -4.441406 23.152344 -8.703125 L 24.042969 -9.652344 C 24.339844 -10.007812 24.574219 -10.363281 24.574219 -10.71875 C 24.574219 -11.191406 24.28125 -11.546875 23.804688 -11.546875 C 23.449219 -11.546875 22.976562 -11.371094 22.445312 -10.777344 C 19.304688 -7.285156 15.929688 -5.507812 14.332031 -5.507812 C 13.441406 -5.507812 12.792969 -6.039062 12.792969 -6.808594 C 12.792969 -9.179688 19.542969 -18.773438 21.257812 -19.839844 C 23.925781 -21.496094 30.675781 -26.054688 30.675781 -29.726562 C 30.675781 -30.910156 29.90625 -31.742188 28.71875 -31.742188 C 28.246094 -31.742188 27.714844 -31.621094 27.121094 -31.386719 C 24.574219 -30.378906 22.265625 -26.765625 20.015625 -23.570312 C 18.535156 -21.496094 17.171875 -19.421875 16.285156 -18.535156 C 15.871094 -18.121094 15.574219 -18.0625 15.335938 -18.0625 C 15.160156 -18.0625 14.980469 -18.121094 14.804688 -18.238281 L 14.625 -18.359375 C 13.917969 -18.832031 12.96875 -18.949219 12.140625 -18.949219 C 7.402344 -18.949219 -1.304688 -12.257812 -1.304688 -6.988281 C -1.304688 -4.738281 0.238281 -3.199219 2.605469 -3.199219 Z M 2.25 -8.289062 C 2.25 -11.726562 9.179688 -16.878906 12.257812 -16.878906 C 13.265625 -16.878906 13.917969 -16.34375 13.917969 -15.457031 C 13.917969 -12.4375 6.871094 -6.394531 4.085938 -6.394531 C 3.078125 -6.394531 2.25 -7.105469 2.25 -8.289062 Z M 28.601562 -30.023438 C 28.839844 -30.023438 28.957031 -29.847656 28.957031 -29.550781 C 28.957031 -27.890625 23.628906 -22.738281 22.148438 -22.738281 C 22.027344 -22.738281 21.96875 -22.800781 21.96875 -22.859375 C 21.96875 -23.984375 27.535156 -30.023438 28.601562 -30.023438 Z M 28.601562 -30.023438 "/></g></g></g><g fill="#ffffff" fill-opacity="1"><g transform="translate(144.863437, 190.401433)"><g><path d="M -1.777344 -6.21875 C -1.777344 -4.265625 -0.355469 -3.136719 1.65625 -3.136719 C 4.203125 -3.136719 7.402344 -4.5 11.429688 -9.179688 L 11.785156 -9.59375 C 12.019531 -9.890625 12.199219 -10.125 12.199219 -10.421875 C 12.199219 -10.894531 11.726562 -11.3125 11.191406 -11.3125 C 10.957031 -11.3125 10.660156 -11.191406 10.421875 -10.957031 L 10.007812 -10.601562 C 8.527344 -9.355469 4.382812 -5.152344 2.308594 -5.152344 C 1.65625 -5.152344 1.183594 -5.566406 1.183594 -6.574219 C 1.183594 -6.808594 1.183594 -7.105469 1.242188 -7.222656 C 1.894531 -8.527344 4.5 -12.199219 6.277344 -14.449219 L 7.757812 -16.285156 C 8.054688 -16.640625 8.171875 -17.054688 8.171875 -17.351562 C 8.171875 -18.0625 7.578125 -18.535156 6.929688 -18.535156 C 6.394531 -18.535156 5.742188 -18.238281 5.210938 -17.527344 L 3.730469 -15.632812 C 2.25 -13.738281 -0.175781 -10.957031 -1.183594 -8.765625 C -1.597656 -7.816406 -1.777344 -6.988281 -1.777344 -6.21875 Z M 7.578125 -20.609375 C 7.578125 -19.777344 8.230469 -19.128906 9.058594 -19.128906 C 9.890625 -19.128906 10.601562 -19.777344 10.601562 -20.609375 C 10.601562 -21.4375 9.890625 -22.148438 9.058594 -22.148438 C 8.230469 -22.148438 7.578125 -21.4375 7.578125 -20.609375 Z M 7.578125 -20.609375 "/></g></g></g><g fill="#ffffff" fill-opacity="1"><g transform="translate(155.166337, 190.401433)"><g><path d="M -3.136719 -5.035156 C -3.136719 -2.488281 0.238281 -1.066406 2.722656 -1.066406 C 4.265625 -1.066406 6.039062 -1.65625 7.402344 -2.722656 C 8.644531 -3.375 14.566406 -7.34375 16.816406 -9.535156 L 16.9375 -9.59375 C 17.171875 -9.832031 17.292969 -10.066406 17.292969 -10.363281 C 17.292969 -10.835938 16.816406 -11.25 16.226562 -11.25 C 15.988281 -11.25 15.691406 -11.191406 15.457031 -10.957031 L 15.457031 -10.894531 C 14.035156 -9.476562 11.546875 -7.578125 10.421875 -7.578125 C 8.644531 -7.578125 8.351562 -12.199219 8.351562 -13.324219 C 8.351562 -15.691406 9.652344 -16.996094 12.140625 -17.765625 C 12.496094 -17.882812 13.207031 -18.0625 13.207031 -18.949219 C 13.207031 -19.898438 12.375 -20.371094 11.488281 -20.371094 C 10.480469 -20.371094 9.238281 -19.777344 8.289062 -19.128906 C 6.929688 -18.179688 5.683594 -16.757812 4.382812 -15.398438 L 2.367188 -13.207031 L 0 -10.835938 C -0.117188 -10.71875 -0.175781 -10.539062 -0.175781 -10.363281 C -0.175781 -9.832031 0.296875 -9.296875 0.886719 -9.296875 C 1.066406 -9.296875 1.363281 -9.414062 1.539062 -9.652344 C 2.722656 -11.25 4.203125 -12.019531 4.679688 -12.019531 C 5.683594 -12.019531 6.453125 -8.054688 6.453125 -6.929688 C 6.453125 -5.09375 4.324219 -3.789062 2.488281 -3.789062 C 1.421875 -3.789062 0.414062 -4.265625 0 -5.328125 C -0.296875 -6.160156 -0.949219 -6.574219 -1.65625 -6.574219 C -2.605469 -6.574219 -3.136719 -5.980469 -3.136719 -5.035156 Z M -3.136719 -5.035156 "/></g></g></g><g fill="#ffffff" fill-opacity="1"><g transform="translate(170.561465, 190.401433)"><g><path d="M -1.777344 -6.21875 C -1.777344 -4.265625 -0.355469 -3.136719 1.65625 -3.136719 C 4.203125 -3.136719 7.402344 -4.5 11.429688 -9.179688 L 11.785156 -9.59375 C 12.019531 -9.890625 12.199219 -10.125 12.199219 -10.421875 C 12.199219 -10.894531 11.726562 -11.3125 11.191406 -11.3125 C 10.957031 -11.3125 10.660156 -11.191406 10.421875 -10.957031 L 10.007812 -10.601562 C 8.527344 -9.355469 4.382812 -5.152344 2.308594 -5.152344 C 1.65625 -5.152344 1.183594 -5.566406 1.183594 -6.574219 C 1.183594 -6.808594 1.183594 -7.105469 1.242188 -7.222656 C 1.894531 -8.527344 4.5 -12.199219 6.277344 -14.449219 L 7.757812 -16.285156 C 8.054688 -16.640625 8.171875 -17.054688 8.171875 -17.351562 C 8.171875 -18.0625 7.578125 -18.535156 6.929688 -18.535156 C 6.394531 -18.535156 5.742188 -18.238281 5.210938 -17.527344 L 3.730469 -15.632812 C 2.25 -13.738281 -0.175781 -10.957031 -1.183594 -8.765625 C -1.597656 -7.816406 -1.777344 -6.988281 -1.777344 -6.21875 Z M 7.578125 -20.609375 C 7.578125 -19.777344 8.230469 -19.128906 9.058594 -19.128906 C 9.890625 -19.128906 10.601562 -19.777344 10.601562 -20.609375 C 10.601562 -21.4375 9.890625 -22.148438 9.058594 -22.148438 C 8.230469 -22.148438 7.578125 -21.4375 7.578125 -20.609375 Z M 7.578125 -20.609375 "/></g></g></g><g fill="#ffffff" fill-opacity="1"><g transform="translate(180.864364, 190.401433)"><g/></g></g><g fill="#ffffff" fill-opacity="1"><g transform="translate(201.47015, 190.401433)"><g><path d="M 5.035156 1.363281 C 10.660156 1.363281 16.699219 -5.566406 16.699219 -11.429688 L 16.699219 -12.019531 L 16.640625 -12.375 C 16.285156 -14.507812 25.820312 -15.335938 27.535156 -15.335938 C 28.011719 -15.335938 28.484375 -15.691406 28.542969 -16.226562 C 28.601562 -16.699219 28.1875 -17.113281 27.65625 -17.171875 L 26.707031 -17.230469 C 24.042969 -17.230469 20.191406 -16.523438 16.167969 -15.277344 C 16.046875 -15.335938 15.929688 -15.515625 15.691406 -16.285156 C 15.101562 -18.179688 14.390625 -20.074219 13.5625 -21.96875 C 12.140625 -25.167969 10.777344 -28.367188 10.777344 -31.328125 C 10.777344 -39.734375 21.851562 -44.472656 28.78125 -44.472656 C 31.386719 -44.472656 33.636719 -43.820312 34.878906 -42.339844 L 32.6875 -40.5625 C 31.265625 -39.378906 29.136719 -37.367188 29.136719 -35.292969 C 29.136719 -34.640625 29.3125 -33.992188 29.785156 -33.515625 L 30.023438 -33.28125 C 30.617188 -32.6875 31.328125 -32.453125 32.035156 -32.453125 C 34.996094 -32.453125 38.609375 -36.359375 38.609375 -40.207031 C 38.609375 -40.917969 38.492188 -41.628906 38.195312 -42.339844 L 41.628906 -44.472656 C 42.222656 -44.828125 42.519531 -45.183594 42.519531 -45.539062 C 42.519531 -46.011719 42.105469 -46.425781 41.628906 -46.425781 C 41.394531 -46.425781 41.097656 -46.367188 40.742188 -46.128906 L 37.1875 -43.941406 C 35.414062 -46.25 32.273438 -47.257812 28.78125 -47.257812 C 20.429688 -47.257812 7.933594 -41.214844 7.933594 -31.386719 C 7.933594 -28.011719 9.414062 -24.457031 10.777344 -21.4375 C 11.960938 -18.773438 12.910156 -16.523438 13.382812 -14.332031 C 6.453125 -11.726562 0 -7.699219 0 -3.136719 C 0 -0.53125 2.074219 1.363281 5.035156 1.363281 Z M 2.25 -3.199219 C 2.25 -6.453125 10.480469 -11.546875 12.851562 -11.546875 C 13.5 -11.546875 13.679688 -11.132812 13.679688 -10.539062 L 13.679688 -10.304688 C 13.207031 -6.21875 8.765625 -1.421875 4.738281 -1.421875 C 3.257812 -1.421875 2.25 -2.074219 2.25 -3.199219 Z M 30.972656 -35.292969 C 30.972656 -36.597656 32.984375 -38.492188 33.871094 -39.203125 L 35.707031 -40.683594 C 35.769531 -40.503906 35.769531 -40.386719 35.769531 -40.269531 C 35.769531 -38.492188 33.222656 -34.640625 31.445312 -34.640625 C 31.328125 -34.640625 31.265625 -34.703125 31.207031 -34.703125 C 31.089844 -34.878906 30.972656 -35.117188 30.972656 -35.292969 Z M 30.972656 -35.292969 "/></g></g></g><g fill="#ffffff" fill-opacity="1"><g transform="translate(224.207573, 190.401433)"><g><path d="M -4.144531 -4.558594 C -4.144531 -3.789062 -3.492188 -3.136719 -2.722656 -3.136719 C -2.308594 -3.136719 -1.835938 -3.375 -1.597656 -3.730469 L 2.011719 -9.121094 C 3.789062 -11.25 8.941406 -16.640625 11.785156 -16.640625 C 12.792969 -16.640625 13.265625 -16.046875 13.265625 -15.21875 C 13.265625 -14.6875 13.027344 -14.035156 12.613281 -13.441406 C 11.605469 -11.960938 10.363281 -10.066406 9.769531 -8.941406 C 9.179688 -7.816406 8.882812 -6.808594 8.882812 -6.039062 C 8.882812 -4.5 10.007812 -3.613281 11.960938 -3.613281 C 14.449219 -3.613281 16.640625 -5.09375 21.023438 -9.652344 C 21.257812 -9.949219 21.4375 -10.183594 21.4375 -10.421875 C 21.4375 -10.894531 20.902344 -11.3125 20.371094 -11.3125 C 20.074219 -11.3125 19.777344 -11.191406 19.542969 -10.894531 C 17.882812 -8.824219 14.273438 -5.863281 12.851562 -5.863281 C 12.375 -5.863281 11.960938 -6.097656 11.960938 -6.691406 C 11.960938 -6.988281 12.019531 -7.402344 12.375 -7.933594 L 15.335938 -12.554688 C 15.988281 -13.621094 16.285156 -14.625 16.285156 -15.457031 C 16.285156 -17.46875 14.566406 -18.710938 12.4375 -18.710938 C 11.3125 -18.710938 10.304688 -18.359375 9.355469 -17.824219 C 8.765625 -17.527344 8.171875 -17.171875 7.933594 -17.171875 C 7.816406 -17.171875 7.757812 -17.230469 7.757812 -17.351562 C 7.757812 -17.410156 7.816406 -17.527344 7.875 -17.585938 L 8.289062 -18.238281 C 9.121094 -19.542969 9.179688 -19.542969 10.894531 -20.609375 C 13.796875 -22.382812 16.699219 -24.101562 18.535156 -26.234375 C 19.71875 -27.65625 20.132812 -28.78125 20.132812 -29.726562 C 20.132812 -31.148438 19.1875 -32.214844 17.707031 -32.214844 C 16.460938 -32.214844 14.863281 -31.445312 13.144531 -29.550781 C 12.082031 -28.425781 10.894531 -26.765625 9.710938 -25.109375 L -3.910156 -5.328125 C -4.085938 -5.09375 -4.144531 -4.796875 -4.144531 -4.558594 Z M 12.082031 -23.570312 C 12.082031 -24.28125 16.046875 -29.3125 17.46875 -29.3125 C 17.765625 -29.3125 18.003906 -29.074219 18.003906 -28.78125 C 18.003906 -27.300781 12.96875 -23.449219 12.199219 -23.449219 C 12.082031 -23.449219 12.082031 -23.507812 12.082031 -23.570312 Z M 12.082031 -23.570312 "/></g></g></g><g fill="#ffffff" fill-opacity="1"><g transform="translate(243.688325, 190.401433)"><g><path d="M -2.011719 -5.980469 C -2.011719 -4.027344 -0.53125 -2.902344 1.597656 -2.902344 C 2.960938 -2.902344 4.679688 -3.375 6.394531 -4.382812 C 7.460938 -5.035156 8.230469 -5.269531 8.941406 -5.269531 C 9.652344 -5.269531 10.304688 -4.972656 10.835938 -4.324219 C 11.429688 -3.554688 12.316406 -3.257812 13.207031 -3.257812 C 16.523438 -3.257812 20.964844 -7.222656 23.332031 -9.535156 L 23.390625 -9.59375 C 23.628906 -9.832031 23.6875 -10.066406 23.6875 -10.304688 C 23.6875 -10.777344 23.214844 -11.191406 22.679688 -11.191406 C 22.382812 -11.191406 22.027344 -11.074219 21.792969 -10.777344 C 20.015625 -8.527344 15.988281 -5.566406 13.738281 -5.566406 C 12.910156 -5.566406 12.4375 -6.039062 12.4375 -6.871094 C 12.4375 -7.519531 12.730469 -8.351562 13.382812 -9.355469 C 14.332031 -10.835938 16.699219 -13.265625 18.179688 -14.980469 L 19.601562 -16.640625 C 19.898438 -16.9375 20.015625 -17.292969 20.015625 -17.585938 C 20.015625 -18.417969 19.1875 -18.949219 18.417969 -18.949219 C 17.941406 -18.949219 17.410156 -18.710938 17.113281 -18.359375 C 14.746094 -15.515625 6.453125 -4.855469 2.546875 -4.855469 C 1.71875 -4.855469 1.304688 -5.328125 1.304688 -6.160156 C 1.304688 -6.871094 1.597656 -7.757812 2.191406 -8.765625 C 3.257812 -10.539062 5.863281 -13.5 7.402344 -15.277344 L 8.527344 -16.582031 C 8.824219 -16.878906 8.941406 -17.292969 8.941406 -17.585938 C 8.941406 -18.417969 8.171875 -18.949219 7.460938 -18.949219 C 6.929688 -18.949219 6.335938 -18.652344 5.921875 -18.121094 L 4.441406 -16.34375 C 2.664062 -14.273438 0.238281 -11.429688 -0.949219 -9.355469 C -1.71875 -8.054688 -2.011719 -6.929688 -2.011719 -5.980469 Z M -2.011719 -5.980469 "/></g></g></g><g fill="#ffffff" fill-opacity="1"><g transform="translate(265.537561, 190.401433)"><g><path d="M -4.085938 -4.679688 C -4.085938 -3.96875 -3.433594 -3.316406 -2.722656 -3.316406 C -2.25 -3.316406 -1.777344 -3.613281 -1.480469 -4.027344 L 3.019531 -10.601562 C 5.980469 -14.625 8.644531 -16.046875 10.304688 -16.046875 C 11.488281 -16.046875 12.019531 -15.335938 12.019531 -14.507812 C 12.019531 -14.09375 11.902344 -13.621094 11.605469 -13.265625 L 6.039062 -5.390625 C 5.863281 -5.152344 5.804688 -4.914062 5.804688 -4.679688 C 5.804688 -3.96875 6.453125 -3.316406 7.164062 -3.316406 C 7.640625 -3.316406 8.113281 -3.613281 8.410156 -4.027344 L 14.09375 -11.960938 C 15.574219 -13.5625 18.476562 -16.226562 20.609375 -16.226562 C 21.023438 -16.226562 21.378906 -16.046875 21.378906 -15.515625 C 21.378906 -15.21875 21.257812 -14.6875 20.726562 -13.976562 L 19.898438 -12.851562 C 19.128906 -11.785156 18.121094 -10.421875 17.410156 -9.238281 C 16.582031 -7.875 16.167969 -6.632812 16.167969 -5.683594 C 16.167969 -4.265625 17.113281 -3.433594 18.652344 -3.433594 C 21.96875 -3.433594 26.234375 -7.285156 28.542969 -9.59375 L 28.601562 -9.652344 C 29.015625 -10.125 29.195312 -10.480469 29.195312 -10.835938 C 29.195312 -11.25 28.839844 -11.546875 28.367188 -11.546875 C 27.949219 -11.546875 27.476562 -11.3125 26.824219 -10.660156 C 25.820312 -9.652344 21.320312 -5.566406 19.542969 -5.566406 C 19.1875 -5.566406 19.007812 -5.742188 19.007812 -6.097656 C 19.007812 -6.574219 19.246094 -7.402344 20.074219 -8.527344 L 23.449219 -13.144531 C 24.160156 -14.332031 24.515625 -15.398438 24.515625 -16.226562 C 24.515625 -17.941406 23.273438 -18.773438 21.671875 -18.773438 C 20.253906 -18.773438 18.296875 -18.121094 16.996094 -17.292969 C 16.582031 -17.054688 16.226562 -16.878906 15.871094 -16.878906 C 15.574219 -16.878906 15.335938 -16.996094 15.101562 -17.46875 L 14.980469 -17.707031 C 14.566406 -18.535156 13.738281 -18.710938 12.792969 -18.710938 C 11.785156 -18.710938 10.246094 -18.417969 9.296875 -17.882812 C 9.058594 -17.765625 8.824219 -17.707031 8.703125 -17.707031 C 8.351562 -17.707031 8.113281 -18.003906 8.054688 -18.0625 C 7.578125 -18.710938 7.285156 -19.007812 6.808594 -19.007812 C 6.335938 -19.007812 5.804688 -18.773438 5.328125 -18.179688 L 2.308594 -14.09375 C 0.175781 -11.191406 -2.011719 -8.351562 -3.847656 -5.390625 C -4.027344 -5.152344 -4.085938 -4.914062 -4.085938 -4.679688 Z M -4.085938 -4.679688 "/></g></g></g><g fill="#ffffff" fill-opacity="1"><g transform="translate(292.538259, 190.401433)"><g><path d="M -1.363281 -6.929688 C -1.363281 -4.738281 0.175781 -3.136719 2.488281 -3.136719 C 3.433594 -3.136719 4.558594 -3.257812 5.742188 -4.027344 L 7.046875 -4.855469 C 7.933594 -5.390625 8.703125 -5.863281 9.238281 -5.863281 C 9.535156 -5.863281 9.769531 -5.742188 9.890625 -5.449219 C 10.363281 -3.96875 11.785156 -3.078125 13.441406 -3.078125 C 17.054688 -3.078125 21.671875 -7.105469 24.457031 -9.535156 C 24.753906 -9.832031 24.929688 -10.183594 24.929688 -10.480469 C 24.929688 -10.957031 24.574219 -11.371094 24.042969 -11.371094 C 23.6875 -11.371094 23.332031 -11.191406 22.917969 -10.835938 C 21.378906 -9.535156 17.585938 -5.863281 14.863281 -5.863281 C 13.855469 -5.863281 13.621094 -6.394531 13.621094 -6.988281 C 13.621094 -9.535156 17.585938 -13.679688 19.128906 -14.863281 C 19.777344 -15.398438 19.957031 -15.8125 19.957031 -16.105469 C 19.957031 -16.816406 19.246094 -17.46875 18.476562 -17.46875 C 18.296875 -17.46875 18.121094 -17.410156 17.941406 -17.351562 C 16.816406 -17.351562 16.285156 -17.648438 15.574219 -17.941406 L 15.277344 -18.0625 C 14.273438 -18.476562 13.265625 -18.832031 12.199219 -18.832031 C 7.105469 -18.832031 -1.363281 -11.960938 -1.363281 -6.929688 Z M 1.953125 -8.171875 C 1.953125 -11.785156 8.882812 -16.816406 12.140625 -16.816406 C 13.265625 -16.816406 14.035156 -16.226562 14.035156 -15.160156 C 14.035156 -12.257812 7.105469 -6.277344 3.910156 -6.277344 C 2.722656 -6.277344 1.953125 -6.929688 1.953125 -8.171875 Z M 1.953125 -8.171875 "/></g></g></g><g fill="#ffffff" fill-opacity="1"><g transform="translate(315.512541, 190.401433)"><g><path d="M -4.085938 -4.679688 C -4.085938 -3.96875 -3.492188 -3.316406 -2.722656 -3.316406 C -2.25 -3.316406 -1.777344 -3.613281 -1.480469 -4.027344 L 3.199219 -10.777344 C 4.796875 -13.085938 8.644531 -16.34375 11.605469 -16.34375 C 12.4375 -16.34375 13.027344 -16.105469 13.027344 -15.398438 C 13.027344 -14.980469 12.910156 -14.449219 12.375 -13.738281 L 9.832031 -10.183594 C 8.765625 -8.585938 8.289062 -7.164062 8.289062 -6.097656 C 8.289062 -4.382812 9.414062 -3.433594 11.132812 -3.433594 C 14.625 -3.433594 18.476562 -7.34375 20.785156 -9.710938 C 20.964844 -9.949219 21.023438 -10.125 21.023438 -10.363281 C 21.023438 -10.894531 20.546875 -11.371094 20.015625 -11.371094 C 19.777344 -11.371094 19.601562 -11.25 19.363281 -11.074219 L 19.007812 -10.777344 C 17.648438 -9.652344 13.441406 -5.507812 11.664062 -5.507812 C 11.25 -5.507812 11.015625 -5.742188 11.015625 -6.21875 C 11.015625 -6.808594 11.371094 -7.875 12.316406 -9.121094 L 13.5 -10.71875 C 14.035156 -11.488281 14.625 -12.140625 15.042969 -12.792969 C 15.691406 -13.796875 15.929688 -14.746094 15.929688 -15.515625 C 15.929688 -17.648438 14.210938 -18.710938 12.082031 -18.710938 C 11.191406 -18.710938 10.246094 -18.535156 9.296875 -18.121094 C 8.941406 -17.941406 8.703125 -17.882812 8.46875 -17.882812 C 8.230469 -17.882812 7.996094 -18.003906 7.875 -18.359375 C 7.699219 -18.832031 7.222656 -19.007812 6.75 -19.007812 C 6.335938 -19.007812 5.742188 -18.773438 5.328125 -18.179688 L 2.902344 -14.804688 C 0.652344 -11.664062 -1.835938 -8.585938 -3.847656 -5.390625 C -4.027344 -5.152344 -4.085938 -4.914062 -4.085938 -4.679688 Z M -4.085938 -4.679688 "/></g></g></g><g fill="#ffffff" fill-opacity="1"><g transform="translate(334.638019, 190.401433)"><g><path d="M -1.363281 -6.929688 C -1.363281 -4.738281 0.175781 -3.136719 2.488281 -3.136719 C 3.433594 -3.136719 4.558594 -3.257812 5.742188 -4.027344 L 7.046875 -4.855469 C 7.933594 -5.390625 8.703125 -5.863281 9.238281 -5.863281 C 9.535156 -5.863281 9.769531 -5.742188 9.890625 -5.449219 C 10.363281 -3.96875 11.785156 -3.078125 13.441406 -3.078125 C 17.054688 -3.078125 21.671875 -7.105469 24.457031 -9.535156 C 24.753906 -9.832031 24.929688 -10.183594 24.929688 -10.480469 C 24.929688 -10.957031 24.574219 -11.371094 24.042969 -11.371094 C 23.6875 -11.371094 23.332031 -11.191406 22.917969 -10.835938 C 21.378906 -9.535156 17.585938 -5.863281 14.863281 -5.863281 C 13.855469 -5.863281 13.621094 -6.394531 13.621094 -6.988281 C 13.621094 -9.535156 17.585938 -13.679688 19.128906 -14.863281 C 19.777344 -15.398438 19.957031 -15.8125 19.957031 -16.105469 C 19.957031 -16.816406 19.246094 -17.46875 18.476562 -17.46875 C 18.296875 -17.46875 18.121094 -17.410156 17.941406 -17.351562 C 16.816406 -17.351562 16.285156 -17.648438 15.574219 -17.941406 L 15.277344 -18.0625 C 14.273438 -18.476562 13.265625 -18.832031 12.199219 -18.832031 C 7.105469 -18.832031 -1.363281 -11.960938 -1.363281 -6.929688 Z M 1.953125 -8.171875 C 1.953125 -11.785156 8.882812 -16.816406 12.140625 -16.816406 C 13.265625 -16.816406 14.035156 -16.226562 14.035156 -15.160156 C 14.035156 -12.257812 7.105469 -6.277344 3.910156 -6.277344 C 2.722656 -6.277344 1.953125 -6.929688 1.953125 -8.171875 Z M 1.953125 -8.171875 "/></g></g></g></svg>